<svg width="26" height="26" viewBox="0 0 26 26" fill="none" xmlns="http://www.w3.org/2000/svg">
<path d="M1.05859 7.00171H24.9398" stroke="white" stroke-linejoin="round"/>
<path d="M14.8047 1.00098L18.2343 7.00158" stroke="white" stroke-linecap="round" stroke-linejoin="round"/>
<path d="M7.24854 1.13184L10.6025 7.00165" stroke="white" stroke-linecap="round" stroke-linejoin="round"/>
<path d="M1 13V17.1384C1 20.5568 1.8376 21.9451 2.9272 23.0718C4.0552 24.1613 5.4448 25 8.8624 25H17.1376C20.5552 25 21.9448 24.1613 23.0728 23.0718C24.1624 21.9451 25 20.5568 25 17.1384V8.86161C25 5.44436 24.1624 4.05489 23.0728 2.92821C21.9448 1.83872 20.5552 1 17.1376 1H8.8624C5.4448 1 4.0552 1.83872 2.9272 2.92821C1.8376 4.05489 1 5.44436 1 8.86161V13Z" stroke="white" stroke-linecap="round" stroke-linejoin="round"/>
<path fill-rule="evenodd" clip-rule="evenodd" d="M10.3158 19.7949C10.15 19.6993 10.0124 19.5616 9.91678 19.3958C9.82114 19.2301 9.77086 19.042 9.771 18.8506V12.5549C9.77077 12.3632 9.82104 12.1749 9.91674 12.0089C10.0124 11.8429 10.1502 11.705 10.3161 11.6092C10.4821 11.5133 10.6704 11.4629 10.862 11.4629C11.0536 11.4629 11.2419 11.5134 11.4078 11.6094L16.8618 14.7578C17.0278 14.8535 17.1656 14.9912 17.2615 15.1571C17.3573 15.323 17.4078 15.5112 17.4078 15.7028C17.4078 15.8943 17.3573 16.0825 17.2615 16.2484C17.1656 16.4143 17.0278 16.552 16.8618 16.6477L11.4078 19.7961C11.2418 19.892 11.0535 19.9424 10.8618 19.9424C10.6701 19.9424 10.4818 19.892 10.3158 19.7961V19.7949Z" fill="white"/>
</svg>
