<svg width="105" height="22" viewBox="0 0 105 22" fill="none" xmlns="http://www.w3.org/2000/svg">
<g clip-path="url(#clip0_302_5)">
<g clip-path="url(#clip1_302_5)">
<g clip-path="url(#clip2_302_5)">
<g clip-path="url(#clip3_302_5)">
<g clip-path="url(#clip4_302_5)">
<g clip-path="url(#clip5_302_5)">
<g clip-path="url(#clip6_302_5)">
<path d="M29.9219 8.06435C29.9219 7.95614 30.0761 7.8272 30.3846 7.67752C30.6931 7.52963 31.1297 7.39708 31.6945 7.27986C32.2568 7.16264 32.8702 7.10403 33.5347 7.10403C34.1991 7.10403 34.6855 7.17616 34.994 7.32044C35.3025 7.46471 35.4686 7.62251 35.4923 7.79384L36.1152 12.7172H36.3644L36.9161 7.91557C36.9517 7.66309 37.3551 7.46471 38.1263 7.32044C38.8975 7.17616 39.6153 7.10403 40.2797 7.10403C40.9441 7.10403 41.4365 7.14731 41.7569 7.23387C42.0772 7.31863 42.2825 7.4061 42.3726 7.49627C42.4604 7.58644 42.5043 7.6694 42.5043 7.74514C42.5043 7.82269 42.4189 8.03459 42.2481 8.38085C42.0748 8.72891 41.8933 9.10132 41.7035 9.49807C41.0746 10.7605 40.0128 13.0238 38.5178 16.288C38.3873 16.5675 37.3669 16.7073 35.4567 16.7073C34.8635 16.7073 34.472 16.6757 34.2821 16.6126C34.0923 16.5495 33.9618 16.4413 33.8906 16.288C33.1906 14.7551 32.3541 13.0148 31.3812 11.0671C30.4083 9.11935 29.9219 8.11845 29.9219 8.06435ZM48.1994 9.71449V16.3827C48.1994 16.4818 47.8577 16.5603 47.1743 16.618C46.4932 16.6775 45.7932 16.7073 45.0742 16.7073C44.3576 16.7073 43.8949 16.682 43.6861 16.6315C43.4796 16.5828 43.3764 16.4999 43.3764 16.3827V9.95795C43.3764 9.75957 43.711 9.563 44.3801 9.36823C45.0517 9.17526 45.7849 9.07878 46.5798 9.07878C47.6595 9.07878 48.1994 9.29068 48.1994 9.71449ZM45.779 6.15723C46.562 6.15723 47.1754 6.24559 47.6192 6.42233C48.0653 6.59726 48.2884 6.91467 48.2884 7.37454C48.2884 8.18608 47.4578 8.59185 45.7968 8.59185C44.1357 8.59185 43.3052 8.18608 43.3052 7.37454C43.3052 6.563 44.1298 6.15723 45.779 6.15723ZM52.88 16.829C52.441 16.829 52.0317 16.7794 51.652 16.6802C51.2723 16.581 50.9603 16.4593 50.7159 16.315C50.4738 16.1708 50.2638 15.9769 50.0858 15.7334C49.9079 15.49 49.7714 15.2573 49.6765 15.0355C49.5816 14.8155 49.5104 14.5432 49.463 14.2185C49.3918 13.7406 49.3562 13.1951 49.3562 12.5819C49.3562 11.3286 49.6587 10.3745 50.2638 9.7199C50.8689 9.06706 51.6994 8.74064 52.7554 8.74064C53.8351 8.74064 54.6181 8.9345 55.1046 9.32224C55.2114 9.41241 55.2944 9.52062 55.3538 9.64686H55.4926L55.2826 8.71358V7.02287C55.2826 6.82449 55.6148 6.63063 56.2792 6.44127C56.9412 6.25191 57.6579 6.15723 58.4291 6.15723C59.2382 6.15723 59.7555 6.27445 59.981 6.50889C60.064 6.59907 60.1055 6.68924 60.1055 6.77941V16.3827C60.1055 16.4818 59.7757 16.5603 59.116 16.618C58.4587 16.6775 57.824 16.7073 57.2118 16.7073C56.5995 16.7073 56.208 16.691 56.0372 16.6586C55.8663 16.6279 55.7595 16.5946 55.7168 16.5585C55.6765 16.5224 55.6504 16.4638 55.6385 16.3827L55.4926 15.6117H55.3538C55.247 15.9273 55.0334 16.1933 54.7131 16.4097C54.3097 16.6892 53.6986 16.829 52.88 16.829ZM54.8697 14.8543C55.0619 14.8543 55.2054 14.7641 55.3004 14.5837V10.9724C55.3004 10.8822 55.2375 10.8119 55.1117 10.7614C54.9883 10.7127 54.878 10.6883 54.7807 10.6883C54.3797 10.6883 54.1792 11.3917 54.1792 12.7983C54.1792 13.5468 54.2349 14.0761 54.3464 14.3863C54.458 14.6983 54.6324 14.8543 54.8697 14.8543ZM63.6436 16.4773C63.3588 16.3781 63.0539 16.2294 62.7288 16.031C62.4014 15.8326 62.1308 15.5982 61.9173 15.3277C61.419 14.6784 61.1698 13.8308 61.1698 12.7848C61.1698 12.1356 61.3062 11.5558 61.5791 11.0454C61.852 10.5368 62.1842 10.1428 62.5758 9.86327C62.9673 9.58374 63.4182 9.3538 63.9283 9.17346C64.747 8.88491 65.5657 8.74064 66.3843 8.74064C67.7606 8.74064 68.7193 8.82179 69.2603 8.9841C69.799 9.14641 70.0683 9.42143 70.0683 9.80917C70.0683 10.1969 69.9769 10.609 69.7942 11.0454C69.6091 11.4836 69.3683 11.7028 69.0717 11.7028C68.9767 11.7028 68.6896 11.6261 68.2103 11.4728C67.7286 11.3195 67.3133 11.2429 66.9645 11.2429C66.6133 11.2429 66.3464 11.3484 66.1636 11.5594C65.9785 11.7722 65.886 12.1825 65.886 12.7902C65.886 13.3998 65.9691 13.8146 66.1352 14.0346C66.3013 14.2564 66.5599 14.3673 66.9111 14.3673C67.2599 14.3673 67.6954 14.2772 68.2174 14.0968C68.7394 13.9165 69.0301 13.8263 69.0895 13.8263C69.3149 13.8263 69.532 14.0292 69.7408 14.435C69.9473 14.8407 70.0505 15.2014 70.0505 15.517C70.0505 16.0039 69.7183 16.3439 69.0539 16.5368C68.3894 16.7316 67.4913 16.829 66.3594 16.829C65.2251 16.829 64.3199 16.7118 63.6436 16.4773ZM76.6176 16.829C75.7277 16.829 74.9625 16.7704 74.3218 16.6532C73.6811 16.5359 73.0997 16.3286 72.5777 16.031C71.498 15.4359 70.9581 14.3267 70.9581 12.7037C70.9581 11.2609 71.5098 10.2285 72.6133 9.60628C73.6455 9.02918 74.9803 8.74064 76.6176 8.74064C77.3176 8.74064 77.9168 8.76498 78.4151 8.81367C78.9134 8.86417 79.4212 8.97057 79.9385 9.13288C80.4534 9.29519 80.8687 9.51611 81.1843 9.79564C81.4975 10.0752 81.755 10.4602 81.9567 10.9507C82.1584 11.4431 82.2592 12.0274 82.2592 12.7037C82.2592 14.0743 81.749 15.104 80.7287 15.7929C79.7083 16.4836 78.338 16.829 76.6176 16.829ZM75.9947 14.1915C76.0777 14.5161 76.1643 14.71 76.2545 14.7731C76.3423 14.8362 76.461 14.8678 76.6105 14.8678C76.7576 14.8678 76.8762 14.8362 76.9664 14.7731C77.0542 14.71 77.1372 14.5161 77.2156 14.1915C77.2915 13.8669 77.3295 13.4584 77.3295 12.9661C77.3295 12.4755 77.3152 12.0968 77.2867 11.8299C77.2559 11.5648 77.2203 11.3601 77.18 11.2158C77.1373 11.0716 77.0803 10.9589 77.0091 10.8777C76.9023 10.7605 76.7754 10.7019 76.6283 10.7019C76.4788 10.7019 76.3566 10.7352 76.2616 10.802C76.1667 10.8705 76.0777 11.0689 75.9947 11.3971C75.9116 11.7271 75.8701 12.1942 75.8701 12.7983C75.8701 13.4025 75.9116 13.8669 75.9947 14.1915ZM88.1322 12.4332V16.3827C88.1322 16.4818 87.7965 16.5603 87.1249 16.618C86.4557 16.6775 85.7617 16.7073 85.0427 16.7073C84.326 16.7073 83.8609 16.682 83.6474 16.6315C83.4338 16.5828 83.327 16.4999 83.327 16.3827V9.71449C83.327 9.54316 83.6557 9.35831 84.313 9.15993C84.9727 8.96156 85.6905 8.86237 86.4664 8.86237C87.2447 8.86237 87.6814 9.02467 87.7763 9.34929L87.9542 9.97147H88.0788C88.2449 9.62882 88.6424 9.33757 89.2712 9.09771C89.9001 8.85966 90.5289 8.74064 91.1577 8.74064C91.7865 8.74064 92.2279 8.81728 92.4818 8.97057C92.7381 9.12386 92.8662 9.31954 92.8662 9.55759C92.8662 9.79744 92.8425 10.1022 92.795 10.4719C92.7476 10.8416 92.6313 11.2429 92.4462 11.6757C92.2635 12.1085 92.0238 12.3249 91.7272 12.3249C91.6086 12.3249 91.2348 12.2573 90.606 12.1221C89.9772 11.9868 89.4575 11.9192 89.047 11.9192C88.6388 11.9192 88.3838 11.9643 88.2817 12.0544C88.1821 12.1446 88.1322 12.2708 88.1322 12.4332ZM99.024 13.6505H98.4367C98.4367 14.2366 98.8045 14.5296 99.5401 14.5296C99.9672 14.5296 100.525 14.4187 101.213 14.1969C101.901 13.9769 102.263 13.8669 102.299 13.8669C102.524 13.8669 102.821 14.1239 103.188 14.6378C103.556 15.1518 103.74 15.5305 103.74 15.774C103.74 16.1257 103.266 16.3917 102.316 16.572C101.367 16.7524 100.438 16.8425 99.5294 16.8425C98.6229 16.8425 97.8636 16.7884 97.2514 16.6802C96.6416 16.572 96.1432 16.4341 95.7564 16.2663C95.372 16.1004 95.0339 15.8957 94.742 15.6523C94.4525 15.4088 94.2366 15.1762 94.0942 14.9543C93.9518 14.7343 93.8391 14.4891 93.7561 14.2185C93.6374 13.8218 93.5781 13.4115 93.5781 12.9877C93.5781 11.3466 94.1417 10.2149 95.2688 9.59275C95.8264 9.27716 96.4493 9.05624 97.1375 8.93C97.8256 8.80376 98.6384 8.74064 99.5757 8.74064C102.577 8.74064 104.078 9.53414 104.078 11.1212C104.078 12.8074 102.394 13.6505 99.024 13.6505ZM98.4011 11.6757V12.5684C98.7452 12.5684 99.0263 12.4647 99.2447 12.2573C99.4653 12.0499 99.5757 11.7974 99.5757 11.4999C99.5757 10.9589 99.3918 10.6883 99.024 10.6883C98.6087 10.6883 98.4011 11.0175 98.4011 11.6757Z" fill="#ED3833"/>
</g>
</g>
</g>
</g>
</g>
</g>
</g>
<g clip-path="url(#clip7_302_5)">
<g clip-path="url(#clip8_302_5)">
<rect width="22" height="22" fill="#EE3E38"/>
<path fill-rule="evenodd" clip-rule="evenodd" d="M3.31746 0C1.48517 0 0 1.48339 0 3.31582V18.6841C0 20.5165 1.48517 21.9999 3.31746 21.9999H18.6825C20.5148 21.9999 22 20.5165 22 18.6841V3.31582C22 1.48339 20.5148 0 18.6825 0H3.31746ZM3.49206 1.0471H5.93651V20.9528H3.49206V1.0471ZM6.98413 1.0471H12.2222V20.9528H6.98413V1.0471ZM13.2698 1.0471H18.6825C19.9362 1.0471 20.9524 2.06209 20.9524 3.31582V18.6841C20.9524 19.9378 19.9362 20.9528 18.6825 20.9528H13.2698V1.0471ZM2.43362 1.22162C2.43676 1.22022 2.4413 1.22301 2.44444 1.22162V20.7783C1.62486 20.4359 1.04762 19.6282 1.04762 18.6841V3.31582C1.04762 2.37552 1.61892 1.56611 2.43362 1.22162Z" fill="white"/>
<g clip-path="url(#clip9_302_5)">
<path d="M7.56074 7.04431L15.8878 11.35C16.0598 11.4389 16.0587 11.6631 15.8859 11.7501L7.47742 15.9821C7.2892 16.0769 7.06365 15.93 7.10343 15.7386L7.98045 11.515C7.98604 11.488 7.98625 11.4604 7.98106 11.4334L7.18417 7.28251C7.14741 7.091 7.37394 6.94774 7.56074 7.04431Z" fill="url(#paint0_linear_302_5)"/>
</g>
</g>
</g>
<defs>
<linearGradient id="paint0_linear_302_5" x1="74.9512" y1="24.099" x2="714.845" y2="-487.518" gradientUnits="userSpaceOnUse">
<stop stop-color="#FDFAFE"/>
<stop offset="0.942708" stop-color="#ED3833"/>
</linearGradient>
<clipPath id="clip0_302_5">
<rect width="74.16" height="10.6853" fill="white" transform="translate(29.9199 6.15723)"/>
</clipPath>
<clipPath id="clip1_302_5">
<rect width="74.16" height="10.6853" fill="white" transform="translate(29.9199 6.15723)"/>
</clipPath>
<clipPath id="clip2_302_5">
<rect width="74.16" height="10.6853" fill="white" transform="translate(29.9199 6.15723)"/>
</clipPath>
<clipPath id="clip3_302_5">
<rect width="74.16" height="10.6853" fill="white" transform="translate(29.9199 6.15723)"/>
</clipPath>
<clipPath id="clip4_302_5">
<rect width="74.16" height="10.6853" fill="white" transform="translate(29.9199 6.15723)"/>
</clipPath>
<clipPath id="clip5_302_5">
<rect width="74.16" height="10.6853" fill="white" transform="translate(29.9199 6.15723)"/>
</clipPath>
<clipPath id="clip6_302_5">
<rect width="74.16" height="10.6853" fill="white" transform="translate(29.9199 6.15723)"/>
</clipPath>
<clipPath id="clip7_302_5">
<rect width="22" height="22" fill="white"/>
</clipPath>
<clipPath id="clip8_302_5">
<rect width="22" height="22" fill="white"/>
</clipPath>
<clipPath id="clip9_302_5">
<rect width="9" height="10" fill="white" transform="translate(6 15.9995) rotate(-89.4609)"/>
</clipPath>
</defs>
</svg>
