<svg width="133" height="26" viewBox="0 0 133 26" fill="none" xmlns="http://www.w3.org/2000/svg">
<g clip-path="url(#clip0_461_65)">
<g clip-path="url(#clip1_461_65)">
<rect width="26.3737" height="26" fill="#EE3E38"/>
<path fill-rule="evenodd" clip-rule="evenodd" d="M3.97698 0C1.78043 0 0 1.7531 0 3.91869V22.0812C0 24.2468 1.78043 25.9999 3.97698 25.9999H22.3967C24.5932 25.9999 26.3737 24.2468 26.3737 22.0812V3.91869C26.3737 1.7531 24.5932 0 22.3967 0H3.97698ZM4.1863 1.23748H7.1167V24.7624H4.1863V1.23748ZM8.37259 1.23748H14.652V24.7624H8.37259V1.23748ZM15.9079 1.23748H22.3967C23.8996 1.23748 25.1178 2.43701 25.1178 3.91869V22.0812C25.1178 23.5629 23.8996 24.7624 22.3967 24.7624H15.9079V1.23748ZM2.91743 1.44373C2.9212 1.44208 2.92664 1.44538 2.93041 1.44373V24.5562C1.94788 24.1515 1.25589 23.197 1.25589 22.0812V3.91869C1.25589 2.80743 1.94077 1.85086 2.91743 1.44373Z" fill="white"/>
<g clip-path="url(#clip2_461_65)">
<path d="M9.06365 8.32495L19.0462 13.4135C19.2523 13.5186 19.251 13.7836 19.0439 13.8863L8.96376 18.8878C8.73812 18.9998 8.46773 18.8263 8.51542 18.6L9.56679 13.6085C9.57349 13.5766 9.57374 13.544 9.56752 13.512L8.6122 8.60647C8.56814 8.38014 8.8397 8.21083 9.06365 8.32495Z" fill="url(#paint0_linear_461_65)"/>
</g>
</g>
</g>
<path d="M33.6867 3.5L37.3051 18.2647H37.3506L41.0146 3.5H44.7013L39.3078 24.5H35.2797L30 3.5H33.6867ZM49.6624 3.5V24.5H46.0895V3.5H49.6624ZM59.7667 3.5C62.0727 3.5 63.8858 4.42156 65.2057 6.26471C66.5256 8.10785 67.1856 10.6471 67.1856 13.8824C67.1856 17.2353 66.5218 19.8432 65.1943 21.7059C63.8668 23.5685 62.0879 24.5 59.8577 24.5H52.8029V3.5H59.7667ZM59.5391 20.6176C60.8287 20.6176 61.8301 20.0686 62.5431 18.9706C63.2561 17.8726 63.6127 16.3137 63.6127 14.2941C63.6127 11.9804 63.2296 10.25 62.4634 9.10294C61.6973 7.95588 60.5177 7.38235 58.9247 7.38235H56.3758V20.6176H59.5391ZM76.9485 3C78.845 3 80.4379 3.69118 81.7276 5.07353C83.0172 6.45588 83.7606 8.28441 83.9578 10.5588H80.4987C80.3773 9.51962 79.9753 8.64706 79.2925 7.94118C78.6098 7.23529 77.8284 6.88235 76.9485 6.88235C75.5527 6.88235 74.468 7.52941 73.6942 8.82353C72.9205 10.1176 72.5336 11.8726 72.5336 14.0882C72.5336 16.2451 72.9243 17.9559 73.7056 19.2206C74.4869 20.4853 75.5679 21.1176 76.9485 21.1176C77.9802 21.1176 78.8146 20.7108 79.4518 19.8971C80.089 19.0833 80.4835 17.9216 80.6352 16.4118H84.0943C83.9123 19.0784 83.1727 21.1765 81.8755 22.7059C80.5783 24.2353 78.9359 25 76.9485 25C74.5665 25 72.6399 23.9853 71.1681 21.9559C69.6964 19.9265 68.9607 17.3038 68.9607 14.0882C68.9607 10.8332 69.6889 8.17147 71.1454 6.10294C72.6019 4.03441 74.5362 3 76.9485 3ZM93.8118 3C96.2088 3 98.1395 4.02941 99.6035 6.08824C101.067 8.14706 101.8 10.8138 101.8 14.0882C101.8 17.2844 101.064 19.9021 99.5921 21.9412C98.1205 23.9803 96.1938 25 93.8118 25C91.4147 25 89.484 23.9804 88.02 21.9412C86.556 19.902 85.8239 17.2844 85.8239 14.0882C85.8239 10.8332 86.5597 8.17147 88.0314 6.10294C89.503 4.03441 91.4297 3 93.8118 3ZM89.3968 14.0882C89.3968 16.2059 89.7837 17.9068 90.5574 19.1912C91.3312 20.4756 92.4159 21.1176 93.8118 21.1176C95.1772 21.1176 96.2543 20.4853 97.0433 19.2206C97.8323 17.9559 98.2267 16.245 98.2267 14.0882C98.2267 11.8334 97.836 10.0685 97.0547 8.79412C96.2734 7.51971 95.1848 6.88235 93.789 6.88235C92.4236 6.88235 91.3501 7.51962 90.5688 8.79412C89.7876 10.0686 89.3968 11.8332 89.3968 14.0882ZM112.996 3.5C114.362 3.5 115.496 4.04412 116.398 5.13235C117.301 6.22059 117.753 7.60779 117.753 9.29412C117.753 11.9216 116.895 13.6765 115.181 14.5588V14.6176C115.757 14.8333 116.209 15.1912 116.535 15.6912C116.861 16.1912 117.108 16.7745 117.275 17.4412C117.441 18.1079 117.548 19.1765 117.593 20.6471C117.654 22.5687 117.866 23.8529 118.23 24.5H114.658C114.46 23.8529 114.309 22.6372 114.202 20.8529C114.081 18.9706 113.815 17.7403 113.406 17.1618C112.996 16.5832 112.329 16.2941 111.403 16.2941H107.808V24.5H104.235V3.5H112.996ZM111.745 13C112.503 13 113.099 12.7794 113.531 12.3382C113.963 11.8971 114.18 11.1176 114.18 10C114.18 8.94118 113.967 8.19118 113.542 7.75C113.118 7.30882 112.511 7.08823 111.722 7.08823H107.808V13H111.745ZM132.818 3.5V7.38235H124.238V11.8824H132.112V15.4706H124.238V20.6176H133V24.5H120.665V3.5H132.818Z" fill="black"/>
<defs>
<linearGradient id="paint0_linear_461_65" x1="89.8516" y1="28.4806" x2="848.395" y2="-586.717" gradientUnits="userSpaceOnUse">
<stop stop-color="#FDFAFE"/>
<stop offset="0.942708" stop-color="#ED3833"/>
</linearGradient>
<clipPath id="clip0_461_65">
<rect width="26.3737" height="26" fill="white"/>
</clipPath>
<clipPath id="clip1_461_65">
<rect width="26.3737" height="26" fill="white"/>
</clipPath>
<clipPath id="clip2_461_65">
<rect width="10.6364" height="11.988" fill="white" transform="matrix(0.00954453 -0.999954 0.999957 0.00927602 7.19287 18.9084)"/>
</clipPath>
</defs>
</svg>
